<svg width="64" height="64" viewBox="0 0 64 64" fill="none" xmlns="http://www.w3.org/2000/svg">
<g clip-path="url(#clip0_103_140)">
<path fill-rule="evenodd" clip-rule="evenodd" d="M0.345703 23.6437C0.345703 19.7116 1.90771 15.9406 4.68809 13.1603C7.46847 10.3799 11.2395 8.81787 15.1715 8.81787H49.0591C52.9912 8.81787 56.7622 10.3799 59.5426 13.1603C62.323 15.9406 63.885 19.7116 63.885 23.6437V42.8241C63.8844 45.6597 62.9266 48.412 61.1666 50.6353C59.4067 52.8586 56.9477 54.4226 54.188 55.0741C51.4283 55.7255 48.5295 55.4262 45.9611 54.2247C43.3927 53.0231 41.3051 50.9897 40.0366 48.4537L39.2741 46.9414H24.9523L24.1941 48.4537C22.9254 50.99 20.8375 53.0236 18.2687 54.2251C15.6998 55.4266 12.8006 55.7256 10.0406 55.0736C7.28064 54.4216 4.82166 52.8568 3.06206 50.6328C1.30246 48.4088 0.345316 45.6558 0.345703 42.8199V23.6437ZM17.2895 34.2336V29.9976H13.0536V25.7617H17.2895V21.5257H21.5255V25.7617H25.7614V29.9976H21.5255V34.2336H17.2895ZM42.7052 34.2336H38.4693V29.9976H42.7052V34.2336ZM46.9412 25.7617H51.1771V21.5257H46.9412V25.7617Z" fill="url(#paint0_linear_103_140)"/>
</g>
<defs>
<linearGradient id="paint0_linear_103_140" x1="32.1153" y1="8.81787" x2="32.1153" y2="55.4108" gradientUnits="userSpaceOnUse">
<stop/>
<stop offset="1" stop-color="#120D30" stop-opacity="0.99"/>
</linearGradient>
<clipPath id="clip0_103_140">
<rect width="63.5393" height="63.5393" fill="white" transform="translate(0.345703 0.345703)"/>
</clipPath>
</defs>
</svg>
